<?xml version="1.0" standalone="no"?><!-- Generator: Gravit.io --><svg xmlns="http://www.w3.org/2000/svg" xmlns:xlink="http://www.w3.org/1999/xlink" style="isolation:isolate" viewBox="0 0 132.575 162.924" width="132.575" height="162.924"><defs><clipPath id="_clipPath_knSWAUJqEtMxPcbbyFNxo68QtgFznhrs"><rect width="132.575" height="162.924"/></clipPath></defs><g clip-path="url(#_clipPath_knSWAUJqEtMxPcbbyFNxo68QtgFznhrs)"><g id="Group"><path d=" M 131.078 1.497 C 131.078 1.497 131.078 8.685 131.078 29.151 C 131.078 76.57 121.694 119.897 66.288 161.027 C 10.882 119.797 1.497 76.57 1.497 29.151 C 1.497 8.685 1.497 1.497 1.497 1.497 L 131.078 1.497 Z " fill="rgb(255,255,255)"/><path d=" M 125.487 73.376 C 113.707 69.782 106.12 69.083 97.036 69.083 C 87.951 69.083 71.778 69.083 71.778 69.083 C 71.778 69.083 71.778 107.717 71.778 127.584 C 71.778 147.45 76.57 152.641 76.57 152.641 L 66.188 161.027 L 55.905 152.641 C 55.905 152.641 60.697 147.45 60.697 127.584 C 60.697 107.717 60.697 69.083 60.697 69.083 C 60.697 69.083 44.525 69.083 35.44 69.083 C 26.355 69.083 18.968 69.782 7.188 73.376 L 5.99 73.675 C 5.99 73.675 4.393 68.184 3.694 63.293 C 2.995 58.401 3.195 53.21 3.195 53.21 C 13.178 56.704 22.362 57.902 32.046 57.902 C 39.932 57.902 60.897 58.102 60.897 58.102 C 60.897 58.102 60.897 50.415 60.897 40.531 C 60.897 27.553 60.997 16.971 54.607 1.497 L 78.068 1.497 C 71.778 16.971 71.778 27.553 71.778 40.531 C 71.778 50.415 71.778 58.102 71.778 58.102 C 71.778 58.102 92.743 57.902 100.629 57.902 C 110.313 57.902 119.497 56.704 129.481 53.21 L 129.98 53.11 C 129.98 53.11 129.181 62.195 128.582 65.788 C 127.983 69.382 126.685 73.875 126.685 73.875 L 125.487 73.376 Z " fill="rgb(255,221,0)"/><path d=" M 0 0 L 0 29.151 C 0 79.865 11.081 121.893 65.389 162.225 L 66.288 162.924 L 67.186 162.225 C 121.494 121.893 132.575 79.865 132.575 29.151 L 132.575 0 L 0 0 Z  M 73.276 70.58 L 97.036 70.58 C 105.92 70.58 113.408 71.279 124.988 74.773 C 124.988 74.773 125.088 74.773 125.088 74.773 C 118.399 104.223 103.125 128.183 77.169 150.345 C 75.871 147.55 73.276 139.963 73.276 125.487 L 73.276 70.58 L 73.276 70.58 Z  M 35.54 70.58 L 59.299 70.58 L 59.299 125.487 C 59.299 139.963 56.704 147.55 55.406 150.345 C 29.45 128.183 14.176 104.223 7.487 74.873 C 18.968 71.279 26.755 70.58 35.54 70.58 Z  M 32.046 56.604 C 21.863 56.604 12.978 55.206 3.993 52.112 C 3.294 45.024 2.995 37.536 2.995 29.151 L 2.995 2.995 L 53.509 2.995 C 59.299 17.57 59.299 27.553 59.299 40.132 L 59.299 56.604 L 32.046 56.604 Z  M 74.773 152.442 C 71.978 154.738 69.183 156.934 66.288 159.13 C 63.393 156.934 60.497 154.738 57.802 152.442 C 59.2 149.646 62.294 141.66 62.294 125.587 L 62.294 67.585 L 35.54 67.585 C 26.755 67.585 18.469 68.384 6.788 71.978 C 5.69 66.687 4.792 61.096 4.193 55.306 C 13.078 58.201 21.863 59.599 31.946 59.599 L 62.294 59.599 L 62.294 40.132 C 62.294 27.953 62.294 17.47 56.704 2.995 L 75.772 2.995 C 70.181 17.47 70.181 27.953 70.181 40.132 L 70.181 40.531 C 70.181 50.415 70.181 58.102 70.181 58.102 L 70.181 59.599 L 100.53 59.599 C 110.513 59.599 119.398 58.201 128.283 55.306 C 127.684 61.096 126.785 66.687 125.687 71.878 C 113.807 68.284 106.12 67.585 96.936 67.585 L 70.281 67.585 L 70.281 125.587 C 70.281 141.56 73.376 149.547 74.773 152.442 Z  M 129.58 2.995 L 129.58 29.151 C 129.58 37.536 129.281 45.024 128.682 52.112 C 119.697 55.206 110.812 56.704 100.629 56.704 L 73.276 56.704 L 73.276 40.232 C 73.276 27.553 73.276 17.57 79.066 3.095 L 129.58 3.095 L 129.58 2.995 Z " fill="rgb(0,0,0)"/></g></g></svg>